<?xml version="1.0" encoding="UTF-8"?> <svg xmlns="http://www.w3.org/2000/svg" width="559" height="83" viewBox="0 0 559 83" fill="none"><path d="M152.756 47.5553C153.177 46.9584 153.493 46.5019 153.739 46.1859C154.336 45.4134 154.722 44.8867 154.793 44.8165C155.073 44.36 155.249 44.0791 155.319 44.044L155.951 43.3417L156.408 42.6043L156.724 42.2883L157.145 41.6211L158.023 40.8135C158.058 40.7433 158.374 40.3219 158.795 39.6899C158.971 39.3387 159.217 39.0578 159.498 38.7769L159.954 38.2853L160.902 37.1617C161.148 36.9159 161.183 36.8457 161.218 36.5999C161.324 36.4945 161.429 36.3892 161.464 36.3541C161.64 36.1785 161.745 36.0732 161.745 36.0381L162.166 35.5114C162.201 35.4411 162.412 35.2304 162.728 34.9144C163.15 34.4579 163.501 34.0015 163.782 33.5099C163.992 33.1587 164.168 32.8778 164.273 32.8076L164.589 32.5267L168.03 28.1726L168.803 27.0841C169.189 26.5574 169.33 26.2765 169.33 25.9955C169.33 25.3284 168.908 24.9773 168.03 24.8017V24.591L168.346 24.4154L173.789 24.0643C173.719 24.2399 173.719 24.3803 173.684 24.4505C173.578 24.907 173.508 25.2582 173.508 25.4688C173.508 25.4688 173.508 25.4688 173.508 25.504L173.578 26.2413L173.508 27.049L173.613 27.6108C173.613 27.6459 173.649 27.7161 173.649 27.7512C173.649 27.9268 173.578 28.3482 173.508 28.9451C173.473 29.1909 173.473 29.4367 173.473 29.6825C173.473 29.8229 173.473 29.9985 173.473 30.139L173.543 30.8412L173.403 32.316V32.9481L173.333 33.7908L173.543 34.5984L173.403 35.1251L173.368 35.6869L173.297 36.0732V36.8808V37.0212C173.297 37.1266 173.297 37.1617 173.297 37.1968L173.473 37.6182C173.473 37.6533 173.473 37.6884 173.473 37.7235C173.473 37.8289 173.438 37.9693 173.403 38.1449C173.297 38.496 173.227 38.812 173.227 39.093C173.227 39.1632 173.227 39.2334 173.262 39.3036L173.403 40.9891L173.333 44.4653L173.508 45.6241C173.543 45.8348 173.578 45.9752 173.613 46.0455L173.789 46.2561L173.965 46.6073C174.105 46.8882 174.456 47.0286 174.913 47.0286C175.088 47.0286 175.229 46.9935 175.545 46.9233C175.545 47.1691 175.51 47.3096 175.404 47.3447C175.123 47.5553 174.21 47.6958 173.403 47.6958C173.157 47.6958 172.174 47.6958 171.577 47.6958C170.629 47.6607 170.243 47.5553 170.172 47.2744L170.102 47.0638L169.927 46.6775C169.891 46.5722 169.891 46.4668 169.891 46.3615C169.891 46.2561 169.891 46.1508 169.891 46.0806L170.032 44.3951L169.962 42.6394L170.067 41.3753L169.962 40.4273L170.137 37.4777C170.137 37.3724 170.137 37.1617 170.102 36.951C169.856 36.8457 169.681 36.8106 169.61 36.8106L168.417 36.8457L165.818 36.7403L165.537 36.7754H163.466C163.079 36.7754 162.974 36.8808 162.693 37.2319C162.447 37.6182 162.201 37.9693 161.921 38.3556C161.605 38.7769 161.569 38.8472 161.394 39.0578L160.481 40.0059L157.496 43.6577C157.04 44.2195 156.408 45.1676 156.232 45.6241L155.951 46.3264L155.741 46.818C155.776 47.0286 156.057 47.2042 156.583 47.3095V47.4851C156.197 47.5905 156.057 47.6256 155.776 47.6256C155.741 47.6256 155.635 47.6256 155.53 47.6256C155.109 47.5905 154.687 47.5905 154.266 47.5905C153.599 47.5553 153.493 47.5553 153.423 47.5553C153.318 47.5553 153.072 47.5553 152.756 47.5553ZM170.102 35.3358C170.172 35.0549 170.207 35.0198 170.207 34.7389C170.207 34.5984 170.243 34.4228 170.278 34.177C170.172 34.0015 170.102 33.8961 170.102 33.861L170.172 31.9649L170.137 30.5252C170.137 30.4901 170.172 30.2794 170.243 29.9985C170.313 29.6123 170.348 29.2962 170.348 29.0153C170.348 28.9451 170.348 28.6993 170.278 28.2428L170.172 28.1375C169.997 28.3482 169.856 28.4886 169.821 28.5237L169.224 29.3313L167.469 31.3679L166.696 32.4916C166.626 32.5969 166.38 32.8778 165.643 33.7557C165.432 34.0015 165.186 34.3175 164.94 34.5984C164.87 34.7037 164.8 34.8091 164.8 34.9144C164.8 34.9846 164.94 35.0549 165.151 35.0549C165.256 35.0549 165.362 35.0549 165.467 35.0549C165.818 35.0198 166.064 35.0198 166.064 35.0198L166.661 35.1251L167.995 35.1953C168.382 35.2656 168.662 35.3358 168.698 35.3358L169.154 35.2304L169.716 35.3007C169.786 35.3358 169.927 35.3358 170.102 35.3358Z" fill="#2755A6"></path><path d="M181.097 24.4857V24.3101C182.642 24.0994 183.485 24.0292 185.03 24.0292H185.556L185.662 24.0994C185.592 24.3101 185.521 24.4505 185.486 24.5559C185.276 25.1177 185.135 25.5391 185.1 25.6795C184.96 26.136 184.819 26.6978 184.679 27.2948C184.398 28.2428 184.363 28.3482 184.363 28.3482L184.047 28.8046C183.906 28.9802 183.801 29.2611 183.766 29.6123L183.66 30.1741L183.274 31.3679L183.204 31.8595L182.783 32.7374L182.291 34.774L181.694 36.3541L181.413 37.5128C181.238 38.0044 181.132 38.3204 181.132 38.3907L181.097 38.7769L180.746 40.1112C180.711 40.2166 180.711 40.357 180.711 40.5326L180.921 40.7082C180.886 40.8837 180.851 40.9891 180.816 41.0944C180.746 41.3051 180.711 41.5158 180.711 41.6211C180.711 41.7265 180.746 41.7967 180.746 41.9723L180.921 42.0425C180.957 43.0608 181.097 43.447 181.554 43.6577C181.624 43.7982 181.694 43.9035 181.729 43.9738C181.94 44.3951 182.15 44.6409 182.326 44.676L182.818 44.8165C182.818 44.8516 183.063 44.992 183.415 45.2027C183.695 45.3783 184.082 45.5188 184.292 45.5188H184.608L185.205 45.6592L186.645 45.7645C186.821 45.7997 186.856 45.8348 186.891 45.8348C187.066 45.8348 187.277 45.7997 187.488 45.7997L188.436 45.7294L188.963 45.589H189.314L190.227 45.273L190.648 45.2027L191.069 44.9218C191.42 44.676 191.666 44.4653 191.772 44.3249L192.193 43.7982L192.649 43.3066L193.492 42.0074L193.843 41.6211L194.616 39.725L194.967 38.8823L195.88 35.406L196.582 33.545C196.758 32.9832 196.933 32.4214 197.004 31.8595L197.249 30.3848L197.987 27.5406L197.952 27.2245L197.916 27.1894C197.916 27.049 197.987 26.7329 198.057 26.2765C198.092 26.136 198.092 26.0307 198.092 25.8902C198.092 25.4688 197.846 25.1879 197.39 25.1879C197.284 25.1879 197.179 25.1879 197.039 25.223L197.004 24.8719C197.214 24.8017 197.355 24.7666 197.39 24.7666L199.953 24.5208L201.042 24.275C201.147 24.275 201.217 24.275 201.287 24.275C201.393 24.275 201.428 24.3101 201.533 24.3803C201.463 24.591 201.428 24.7315 201.393 24.7666L200.971 25.7498L200.55 27.365L200.094 28.4886L200.023 29.3313L199.672 30.6657L199.391 31.7893L198.935 33.1939L198.584 34.5633L198.268 35.4411L198.057 36.5297L197.706 37.3724L196.968 39.4441C196.933 39.5494 196.793 39.8303 196.512 40.2868C196.442 40.7784 196.371 40.9891 196.196 41.1295L195.775 41.586L195.283 42.183C195.213 42.2883 195.002 42.4639 194.37 43.0959C193.949 43.4822 193.527 43.8684 193.106 44.2195C192.474 44.7814 192.263 44.9569 192.158 45.0272L190.578 45.9401L190.297 46.1859L189.489 46.6073L189.033 46.9233L186.75 47.6607C185.627 48.0469 185.697 48.0469 184.889 48.0469C184.398 48.0469 183.906 48.0118 183.379 47.9767C182.853 47.9416 182.712 47.9065 182.431 47.8011L181.413 47.45L180.395 47.1691C179.096 46.6775 177.761 44.7463 177.726 43.3768L177.656 41.9372C177.656 41.7616 177.656 41.6211 177.656 41.586C177.656 41.0944 177.831 40.3219 178.077 39.5494C178.253 38.9174 178.464 38.2502 178.674 37.6182C178.92 36.6701 178.955 36.5648 179.025 36.319L179.131 35.6167L180.219 32.2809C180.36 31.7893 180.5 31.2626 180.605 30.7008C180.676 30.139 180.781 29.7527 180.851 29.6123L181.062 29.226L181.518 27.1543C181.764 26.2413 181.905 25.5742 181.905 25.4688C181.905 24.9421 181.624 24.6261 181.097 24.4857Z" fill="#2755A6"></path><path d="M198.836 47.6958C198.836 47.5553 198.836 47.45 198.836 47.4149L199.117 46.6424L199.187 46.2913C199.222 46.0806 199.398 45.6592 199.749 45.0623L201.469 39.5845L203.365 34.4228L204.7 29.7527C204.946 29.1207 205.086 28.6642 205.121 28.5237L205.226 27.8917L205.613 26.8032C205.683 26.6276 205.683 26.452 205.683 26.2765C205.683 26.2062 205.683 26.136 205.683 26.1009L205.613 25.6093L205.578 25.3284C205.472 24.907 205.226 24.6963 204.7 24.6261L204.77 24.3452L205.191 24.3101L209.826 24.5208L210.142 24.3803H210.177C210.213 24.3803 210.353 24.4154 210.564 24.4505H211.09L211.898 24.5208L212.565 24.4857L214.391 24.8368H215.445L217.235 25.5742L217.762 25.7146C217.973 25.7849 218.148 25.9604 218.289 26.136L218.78 26.768L219.131 27.2245C219.131 27.2596 219.237 27.5406 219.342 27.9619C219.412 28.3482 219.483 28.6291 219.483 28.7344C219.483 28.7344 219.483 28.7344 219.483 28.7695C219.412 29.226 219.377 29.5069 219.377 29.542L219.412 30.455C219.412 30.5252 219.377 30.5954 219.307 30.7359L219.026 31.2977L218.851 31.7542L218.57 32.1053L218.254 32.5267C218.078 32.7725 217.481 33.229 216.674 33.7557C215.69 34.3526 215.585 34.4228 213.689 35.0549L212.425 35.5114C211.933 35.6869 211.442 35.8274 211.055 35.8625C210.458 35.9327 210.072 36.1083 210.072 36.2487C210.072 36.2839 210.107 36.3541 210.142 36.4945L210.283 36.8106C210.318 36.8457 210.423 36.8808 210.599 36.9159C210.704 37.0915 210.774 37.2319 210.81 37.3373C211.371 38.496 211.336 38.4609 211.758 38.9876H212.039C212.144 39.1281 212.214 39.2334 212.249 39.2685L212.706 40.1815L213.759 41.4456L214.461 42.5692L214.707 42.8852C215.164 43.4119 215.304 43.5524 215.585 43.6226C216.182 44.6409 216.568 45.1676 216.744 45.2378L217.13 45.3783L217.516 45.9401L218.148 46.5019L218.499 46.9233C218.886 47.3096 219.553 47.5905 220.115 47.5905C220.466 47.5905 220.712 47.5553 221.449 47.3447L221.695 47.5905L221.238 47.766C220.606 47.9767 220.15 48.1172 219.939 48.1523L219.096 48.2927L217.13 48.7492C217.025 48.7843 216.919 48.7843 216.814 48.7843C215.971 48.7843 215.725 48.6088 214.496 47.45L212.741 45.7645L212.039 44.8165L210.915 43.6226L210.072 42.3585L207.509 39.1632L207.087 38.3204L206.175 36.7403C206.104 36.635 206.069 36.5297 205.964 36.3541C206.175 36.2136 206.28 36.1434 206.315 36.1434L207.79 35.5816L209.124 35.09L210.774 35.1953C211.055 35.1953 211.758 35.0198 212.46 34.8091C213.232 34.5633 213.303 34.4931 214.04 33.8961C215.585 32.632 215.901 31.9649 215.901 29.7878C215.901 29.4367 215.866 29.1558 215.796 29.0153L215.62 28.7344L215.129 27.8215L214.567 27.4001L214.321 27.1543C214.18 27.049 214.005 26.9787 213.864 26.9436L213.267 26.8734L211.547 26.4169H210.95L209.967 26.2765C209.897 26.2765 209.721 26.3116 209.475 26.3116C209.37 26.3467 209.159 26.3467 208.913 26.3818C208.808 26.5925 208.773 26.7329 208.738 26.768L208.316 28.0673L207.895 29.1207L207.86 29.8229L206.982 32.2107L206.842 32.9481L206.596 33.6854L206.455 34.177C206.455 34.2122 206.245 34.5984 205.964 35.1953C205.788 35.4762 205.683 35.7572 205.613 36.0381L205.402 36.8808L204.735 38.7418V39.3036C204.7 39.3739 204.665 39.5143 204.559 39.6899C204.419 40.0059 204.278 40.2868 204.208 40.5326C204.103 40.8837 204.033 41.0944 203.997 41.1647C203.857 41.4105 203.787 41.586 203.787 41.6211L203.822 42.0776L203.401 43.0959L203.19 43.728L202.944 44.2898L202.768 45.0623L202.523 45.5188C202.417 45.6943 202.382 46.0455 202.382 46.5722C202.382 46.9584 202.663 47.1691 203.401 47.2744V47.6607C202.452 47.5905 201.82 47.5553 201.013 47.5553C200.205 47.5553 199.678 47.5905 198.836 47.6958Z" fill="#2755A6"></path><path d="M220.171 39.0227C220.171 38.8823 220.206 38.4609 220.346 37.5128C220.697 34.8442 221.364 32.7374 222.172 31.4382L222.945 30.2794C223.717 29.0504 223.717 29.0856 224.138 28.6291C224.946 27.8215 225.859 27.1543 226.702 26.7329L227.861 26.1711L228.668 25.7146L229.546 25.3635L230.178 25.0475L230.915 24.8368L231.863 24.5208C231.899 24.5208 232.215 24.5208 232.636 24.4857C232.671 24.4857 232.952 24.4505 233.408 24.3803C233.549 24.3803 233.619 24.3452 233.654 24.3452C234.286 24.3452 235.41 24.5559 236.885 24.9773C237.973 25.2582 238.008 25.2933 239.132 26.2765C239.729 26.8032 239.553 26.5574 240.747 28.2428C240.993 28.6291 241.133 28.9451 241.449 29.9985C241.555 30.3496 241.625 30.7008 241.73 31.087C241.836 31.5435 241.871 31.6137 241.871 31.8244L241.941 32.7374L242.011 33.4748C242.011 33.5099 241.976 33.7557 241.906 34.0366C241.871 34.1419 241.836 34.4931 241.766 35.0549C241.766 35.3709 241.59 36.3541 241.414 37.1617C241.274 37.864 241.028 38.3907 240.221 39.9006C239.272 41.6211 239.202 41.6914 238.184 42.7799C237.657 43.2715 237.166 43.7631 236.709 44.1844C236.147 44.676 235.937 44.8516 235.691 44.992L234.918 45.4134L233.163 46.4668L232.215 46.8531L231.021 47.4149L229.827 47.7309C229.23 47.9065 228.809 48.0118 228.528 48.0118C227.334 48.0118 225.332 47.3798 223.963 46.6073C223.471 46.3264 222.769 45.6241 222.277 44.9569C221.961 44.5356 221.505 43.8333 221.154 43.131C220.522 41.9723 220.346 41.5158 220.311 40.9189L220.241 39.7952L220.171 39.0227ZM238.395 32.7725C238.465 32.5618 238.465 32.3862 238.465 32.3862L238.008 31.1924L237.763 30.3145C237.727 30.2092 237.552 29.9634 237.306 29.542C236.85 28.91 236.498 28.5237 235.972 28.1375L235.024 27.5054C234.813 27.365 234.637 27.2596 234.637 27.2596L233.83 26.9787L232.847 26.6276L232.144 26.5925L231.583 26.452C231.547 26.452 231.512 26.452 231.512 26.452C231.372 26.452 230.986 26.452 230.354 26.4871L229.16 26.5574C228.528 26.5925 227.334 27.2948 226.772 27.9268C226.386 28.3482 225.859 29.1558 225.227 30.2092C224.841 30.8412 224.63 31.2626 224.56 31.4382L224.209 32.5618L224.033 32.9129L223.717 34.5984L223.436 35.8625L223.401 36.7754C223.366 37.1968 223.366 37.4426 223.366 37.5479C223.366 37.6884 223.366 37.8289 223.401 37.9342L223.787 39.5494C224.244 41.5509 224.103 41.1998 225.157 42.6394C225.999 43.7631 226.526 44.2898 227.193 44.6409C227.861 44.992 228.457 45.273 228.703 45.3081L229.511 45.5188L230.705 45.7997C230.951 45.8348 231.231 45.8699 231.442 45.8699C232.566 45.8699 233.303 45.5539 234.427 44.676C235.059 44.1844 235.726 43.5173 235.866 43.3066L236.744 41.8318L237.025 41.3753L237.236 40.8486L237.903 39.5494C238.289 38.8472 238.43 38.18 238.605 36.4594C238.676 35.7572 238.746 34.774 238.746 34.3526C238.746 33.6503 238.676 33.3343 238.395 32.7725Z" fill="#2755A6"></path><path d="M243.926 24.3803L243.891 23.9941C244.102 24.0292 244.242 24.0292 244.277 24.0292L245.998 23.9238L247.227 23.8887C247.824 23.8185 248.21 23.7834 248.245 23.7834C248.315 23.7834 248.456 23.8185 248.631 23.8536C248.631 24.0643 248.631 24.2048 248.631 24.2399L248.596 26.2413V27.0138L248.737 28.6291L248.631 29.226C248.596 29.3313 248.596 29.4718 248.596 29.5771C248.596 29.7527 248.596 29.9283 248.631 30.1038L248.807 30.8061C248.877 31.0519 248.912 31.2977 248.912 31.5084C248.912 31.5435 248.912 31.5786 248.912 31.6489L248.842 33.2641L249.123 34.774L249.228 38.2151C249.263 38.2853 249.263 38.3907 249.299 38.5662C249.334 38.6365 249.404 38.7067 249.404 38.7418L249.369 39.1983V40.3219L249.334 41.8318L249.474 42.4639C249.474 42.5692 249.509 42.7448 249.544 42.9555L252.248 39.2334L252.529 38.7769L255.022 35.1251L257.585 30.8412L258.182 29.9283L258.814 28.7344C259.13 28.2428 259.341 27.8917 259.341 27.8566L259.481 27.2245L259.762 26.4871C259.868 26.1009 259.903 25.82 259.938 25.1879C259.692 24.9773 259.587 24.9421 259.306 24.8719C259.236 24.8368 259.095 24.8017 258.99 24.7666L258.885 24.4857C259.025 24.4505 259.165 24.4154 259.201 24.4154C259.236 24.4154 259.446 24.4505 259.833 24.4505L260.816 24.4154L262.782 24.4505L263.449 24.3803C263.555 24.3803 263.73 24.3803 263.941 24.3452C263.976 24.7666 263.871 24.907 263.555 25.223C263.414 25.3986 263.309 25.504 263.239 25.5742L258.288 33.0885L258.042 33.3343C258.007 33.4045 257.936 33.5099 257.866 33.6854C257.691 34.0366 257.304 34.5984 256.778 35.3007L249.299 45.3081L248.877 45.9752L248.35 46.6073L247.859 47.3447C247.613 47.6607 247.437 47.9065 247.016 48.3278C246.805 47.9065 246.735 47.6958 246.7 47.4149L246.665 46.7126L246.56 46.0806L246.525 44.9218L246.349 43.4822L246.384 41.4105L246.209 39.3739L246.138 36.8457L245.892 35.2656L245.857 33.4396L245.647 31.6137C245.647 30.8061 245.647 30.2443 245.612 30.2092C245.576 29.9985 245.541 29.8581 245.541 29.8581L245.612 29.2611L245.576 28.6291V27.8215L245.471 27.4352L245.401 26.2413L245.12 25.0826C245.05 24.7666 244.944 24.6612 244.699 24.6261L244.242 24.5559C244.207 24.5208 244.067 24.4857 243.926 24.3803Z" fill="#2755A6"></path><path d="M259.256 47.4851C259.361 47.3798 259.432 47.2744 259.467 47.2042L259.572 46.7828L260.064 45.4836L260.274 44.5356L260.625 43.447L260.871 42.3936C260.941 42.1478 261.047 41.9372 261.117 41.7616C261.363 41.27 261.538 40.9189 261.538 40.8837L261.609 40.4624L263.118 35.5114L263.399 34.7389L263.61 33.7908C263.645 33.5099 263.821 32.9832 264.031 32.2458C264.172 31.7542 264.277 31.3679 264.347 31.087C264.488 30.4199 264.593 29.9634 264.663 29.8581C264.734 29.6474 264.769 29.5069 264.804 29.4367L264.769 29.0153L265.331 27.1894L265.471 26.4169L265.717 25.5391C265.717 25.5391 265.717 25.5391 265.717 25.504C265.717 25.0124 265.576 24.8368 264.804 24.5559L264.874 24.3101C265.05 24.275 265.19 24.275 265.225 24.275L267.789 24.1696L268.105 24.1345L268.877 24.2048L269.263 24.1696C269.369 24.2048 269.474 24.275 269.474 24.4154C269.474 24.4857 269.439 24.6261 269.404 24.7666C269.369 24.8368 269.334 24.9773 269.263 25.1177C269.263 25.5742 269.228 25.7498 268.912 26.3116C268.737 26.6978 268.596 27.0138 268.631 27.1894V27.5406L268.21 28.7344L267.683 30.9115L267.437 31.7542C267.262 32.316 267.157 32.7023 267.121 32.7725C267.016 32.9832 266.946 33.1939 266.946 33.2992C266.981 33.5801 267.016 33.7908 267.016 33.7908C267.016 33.8259 266.981 33.9312 266.946 34.0717C266.665 34.7037 266.489 35.1251 266.454 35.1602L266.173 36.0381C266.103 36.2136 266.068 36.319 266.068 36.3541L266.103 36.7052L265.296 38.812L264.944 40.357L263.821 43.5875L263.645 44.5356L263.435 45.273C263.399 45.4485 263.364 45.589 263.364 45.7645C263.364 46.7126 263.47 46.8531 264.488 47.1691C264.558 47.2042 264.663 47.2393 264.804 47.2744L264.839 47.6607L263.329 47.8011C262.522 47.7309 262.17 47.7309 261.784 47.7309C261.538 47.7309 261.293 47.7309 261.117 47.766L260.766 47.8011C260.731 47.8011 260.731 47.8011 260.696 47.8011C260.59 47.8011 260.169 47.766 259.642 47.7309C259.572 47.7309 259.432 47.6958 259.291 47.6958C259.291 47.5905 259.291 47.5905 259.256 47.4851Z" fill="#2755A6"></path><path d="M267.246 47.5905V47.45C267.772 46.8531 268.018 46.4317 268.194 45.6592L268.369 44.8165L268.826 43.7631C268.861 43.728 268.931 43.3768 269.072 42.815L269.458 41.5509L270.195 38.9525L270.546 37.8289L270.652 37.1968L271.143 35.9327L271.74 33.9312L272.267 32.7023L272.688 31.1924L273.25 29.6825L273.461 28.91L273.707 28.1024L273.812 27.6108L274.233 26.3467C274.233 26.2413 274.268 26.136 274.268 26.0307C274.268 25.1879 273.952 24.8017 273.285 24.8017C273.215 24.8017 273.11 24.8017 273.004 24.8017C273.004 24.7315 272.969 24.6612 272.969 24.591C272.969 24.4505 273.11 24.3452 273.285 24.3452L274.69 24.3101L275.919 24.1345H277.71C277.78 24.0994 277.92 24.0994 278.096 24.0643V24.1696C278.096 24.2399 277.955 24.6963 277.745 25.3284L276.726 28.4886C276.691 28.594 276.621 28.7695 276.516 29.0504C276.2 29.8932 275.989 30.455 275.919 30.7008L275.603 31.8244L274.865 34.1419L274.795 34.5633L273.32 38.6014L272.653 41.2349L271.635 44.36C271.6 44.4653 271.6 44.5707 271.6 44.676C271.6 45.0623 271.81 45.2378 272.232 45.2378L273.355 45.273L274.76 45.4836L276.024 45.4485L279.852 45.3783C282.169 45.3432 282.661 45.273 284.241 44.7814L284.662 44.8867C283.714 46.1157 281.186 47.4851 279.535 47.6607L278.623 47.766L278.377 47.8011L277.078 47.7309H272.407L272.056 47.8011L271.354 47.6958L270.09 47.766L269.388 47.6607L267.632 47.6256C267.527 47.6256 267.421 47.6256 267.246 47.5905Z" fill="#2755A6"></path><path d="M284.734 47.5905V47.45C285.261 46.8531 285.506 46.4317 285.682 45.6592L285.858 44.8165L286.314 43.7631C286.349 43.728 286.419 43.3768 286.56 42.815L286.946 41.5509L287.684 38.9525L288.035 37.8289L288.14 37.1968L288.632 35.9327L289.229 33.9312L289.755 32.7023L290.177 31.1924L290.738 29.6825L290.949 28.91L291.195 28.1024L291.3 27.6108L291.722 26.3467C291.722 26.2413 291.757 26.136 291.757 26.0307C291.757 25.1879 291.441 24.8017 290.774 24.8017C290.703 24.8017 290.598 24.8017 290.493 24.8017C290.493 24.7315 290.457 24.6612 290.457 24.591C290.457 24.4505 290.598 24.3452 290.774 24.3452L292.178 24.3101L293.407 24.1345H295.198C295.268 24.0994 295.409 24.0994 295.584 24.0643V24.1696C295.584 24.2399 295.444 24.6963 295.233 25.3284L294.215 28.4886C294.18 28.594 294.109 28.7695 294.004 29.0504C293.688 29.8932 293.477 30.455 293.407 30.7008L293.091 31.8244L292.354 34.1419L292.283 34.5633L290.809 38.6014L290.141 41.2349L289.123 44.36C289.088 44.4653 289.088 44.5707 289.088 44.676C289.088 45.0623 289.299 45.2378 289.72 45.2378L290.844 45.273L292.248 45.4836L293.512 45.4485L297.34 45.3783C299.657 45.3432 300.149 45.273 301.729 44.7814L302.15 44.8867C301.202 46.1157 298.674 47.4851 297.024 47.6607L296.111 47.766L295.865 47.8011L294.566 47.7309H289.896L289.545 47.8011L288.842 47.6958L287.578 47.766L286.876 47.6607L285.12 47.6256C285.015 47.6256 284.91 47.6256 284.734 47.5905Z" fill="#2755A6"></path><path d="M306.295 24.8719L306.26 24.7666C306.401 24.5559 306.541 24.4505 306.647 24.4505H307.349C307.419 24.4505 307.56 24.4505 307.84 24.4154L309.526 24.3452C309.842 24.3452 309.982 24.3452 310.298 24.3452C310.404 24.3452 310.579 24.3452 310.72 24.3452C311.071 24.3803 311.317 24.4154 311.422 24.4154C311.457 24.4154 311.527 24.3803 311.527 24.3803L311.878 24.3101L313.178 24.3452L314.091 24.3101L314.688 24.3803L318.796 24.5208L319.849 24.5559C320.165 24.5559 320.481 24.5208 321.184 24.4857C321.008 24.6612 320.903 24.7666 320.868 24.8017L320.165 25.1879L319.674 25.504L319.007 25.82C318.445 26.136 318.059 26.3116 318.023 26.3116L317.11 26.3467L316.373 26.3818L315.39 26.3116H313.002L311.422 26.2413C311.071 26.2765 310.966 26.3467 310.895 26.7329C310.895 26.9436 310.79 27.2245 310.685 27.5757C310.614 27.7512 310.579 27.9268 310.579 28.0673V28.1024L310.614 28.3131L310.158 29.4718L310.017 30.3848L309.561 31.8946C309.456 32.2107 309.421 32.5267 309.315 33.4045H309.666C310.72 33.4396 311.562 33.4748 311.949 33.4748C312.089 33.4748 312.265 33.4396 312.44 33.4396C313.178 33.3694 313.634 33.3343 313.669 33.3343L317.742 33.5801C317.462 34.0015 317.567 33.8961 316.478 34.6335C315.495 35.3358 314.968 35.6518 314.898 35.6518H312.721C312.651 35.6518 312.37 35.6869 311.878 35.7572C311.352 35.8274 310.79 35.8625 310.193 35.8625L309.105 35.8274C308.648 35.8274 308.543 35.8976 308.402 36.3892L308.156 37.1617L308.086 37.864L307.7 39.0578L307.489 40.2868C307.454 40.3219 307.279 40.8135 306.998 41.586C306.927 41.8318 306.857 42.0425 306.857 42.1478V42.5341C306.857 42.6043 306.647 43.131 306.331 43.9035C306.225 44.1844 306.155 44.4302 306.155 44.6409C306.155 44.7111 306.155 44.8516 306.19 45.0272C306.366 45.0272 306.471 45.0623 306.541 45.0623C307.068 45.1676 307.595 45.2378 307.735 45.2378C307.735 45.2378 307.735 45.2378 307.77 45.2378L309.456 45.1676L310.825 45.3081L312.265 45.3432L313.072 45.4485L314.056 45.4836H314.828C314.933 45.4836 315.039 45.4836 315.249 45.4485C315.741 45.3783 316.373 45.2378 316.443 45.2027L316.97 44.9569C317.005 44.9569 317.005 44.9218 317.04 44.9218C317.181 44.9218 317.251 45.0272 317.251 45.0974C317.251 45.1676 317.251 45.2027 317.216 45.2378L316.83 45.4485L315.811 46.2913C315.565 46.5019 315.214 46.7126 314.828 46.9233L313.704 47.5202C313.494 47.5905 312.651 47.6958 311.843 47.7309C311.668 47.766 311.457 47.766 311.246 47.766L309.491 47.7309C308.859 47.7309 308.472 47.7309 308.402 47.6958C308.016 47.6607 307.77 47.6256 307.665 47.6256C307.665 47.6256 307.665 47.6256 307.63 47.6256L307.349 47.6607L302.608 47.7309L302.257 47.8363C302.257 47.8011 302.257 47.8011 302.257 47.7309C302.222 47.6607 302.222 47.5905 302.222 47.5202C302.222 47.0989 302.468 46.2913 302.924 45.3081C303.135 44.8165 303.311 44.36 303.381 43.9035L303.557 42.9906L304.118 41.2349L304.75 38.7067L305.242 36.9159L305.628 35.0549L306.085 33.7557L306.717 31.0168L307.068 29.7527L307.243 28.6642L307.419 27.8566L307.489 27.1543L307.7 26.5223C307.7 26.4871 307.7 26.452 307.7 26.4169C307.7 26.0307 307.489 25.3635 307.314 25.1879C307.103 24.9773 306.857 24.8719 306.295 24.8719Z" fill="#2755A6"></path><path d="M326.569 47.5905V47.45C327.095 46.8531 327.341 46.4317 327.517 45.6592L327.692 44.8165L328.149 43.7631C328.184 43.728 328.254 43.3768 328.395 42.815L328.781 41.5509L329.518 38.9525L329.869 37.8289L329.975 37.1968L330.466 35.9327L331.063 33.9312L331.59 32.7023L332.011 31.1924L332.573 29.6825L332.784 28.91L333.03 28.1024L333.135 27.6108L333.556 26.3467C333.556 26.2413 333.591 26.136 333.591 26.0307C333.591 25.1879 333.275 24.8017 332.608 24.8017C332.538 24.8017 332.433 24.8017 332.327 24.8017C332.327 24.7315 332.292 24.6612 332.292 24.591C332.292 24.4505 332.433 24.3452 332.608 24.3452L334.013 24.3101L335.242 24.1345H337.033C337.103 24.0994 337.243 24.0994 337.419 24.0643V24.1696C337.419 24.2399 337.278 24.6963 337.068 25.3284L336.049 28.4886C336.014 28.594 335.944 28.7695 335.839 29.0504C335.523 29.8932 335.312 30.455 335.242 30.7008L334.926 31.8244L334.188 34.1419L334.118 34.5633L332.643 38.6014L331.976 41.2349L330.958 44.36C330.923 44.4653 330.923 44.5707 330.923 44.676C330.923 45.0623 331.133 45.2378 331.555 45.2378L332.678 45.273L334.083 45.4836L335.347 45.4485L339.174 45.3783C341.492 45.3432 341.984 45.273 343.564 44.7814L343.985 44.8867C343.037 46.1157 340.509 47.4851 338.858 47.6607L337.945 47.766L337.7 47.8011L336.4 47.7309H331.73L331.379 47.8011L330.677 47.6958L329.413 47.766L328.711 47.6607L326.955 47.6256C326.85 47.6256 326.744 47.6256 326.569 47.5905Z" fill="#2755A6"></path><path d="M342.829 47.5553C343.251 46.9584 343.567 46.5019 343.812 46.1859C344.409 45.4134 344.796 44.8867 344.866 44.8165C345.147 44.36 345.322 44.0791 345.393 44.044L346.025 43.3417L346.481 42.6043L346.797 42.2883L347.218 41.6211L348.096 40.8135C348.131 40.7433 348.447 40.3219 348.869 39.6899C349.044 39.3387 349.29 39.0578 349.571 38.7769L350.028 38.2853L350.976 37.1617C351.221 36.9159 351.257 36.8457 351.292 36.5999C351.397 36.4945 351.502 36.3892 351.537 36.3541C351.713 36.1785 351.818 36.0732 351.818 36.0381L352.24 35.5114C352.275 35.4411 352.486 35.2304 352.802 34.9144C353.223 34.4579 353.574 34.0015 353.855 33.5099C354.066 33.1587 354.241 32.8778 354.347 32.8076L354.663 32.5267L358.104 28.1726L358.876 27.0841C359.262 26.5574 359.403 26.2765 359.403 25.9955C359.403 25.3284 358.982 24.9773 358.104 24.8017V24.591L358.42 24.4154L363.862 24.0643C363.792 24.2399 363.792 24.3803 363.757 24.4505C363.652 24.907 363.581 25.2582 363.581 25.4688C363.581 25.4688 363.581 25.4688 363.581 25.504L363.652 26.2413L363.581 27.049L363.687 27.6108C363.687 27.6459 363.722 27.7161 363.722 27.7512C363.722 27.9268 363.652 28.3482 363.581 28.9451C363.546 29.1909 363.546 29.4367 363.546 29.6825C363.546 29.8229 363.546 29.9985 363.546 30.139L363.617 30.8412L363.476 32.316V32.9481L363.406 33.7908L363.617 34.5984L363.476 35.1251L363.441 35.6869L363.371 36.0732V36.8808V37.0212C363.371 37.1266 363.371 37.1617 363.371 37.1968L363.546 37.6182C363.546 37.6533 363.546 37.6884 363.546 37.7235C363.546 37.8289 363.511 37.9693 363.476 38.1449C363.371 38.496 363.301 38.812 363.301 39.093C363.301 39.1632 363.301 39.2334 363.336 39.3036L363.476 40.9891L363.406 44.4653L363.581 45.6241C363.617 45.8348 363.652 45.9752 363.687 46.0455L363.862 46.2561L364.038 46.6073C364.178 46.8882 364.53 47.0286 364.986 47.0286C365.162 47.0286 365.302 46.9935 365.618 46.9233C365.618 47.1691 365.583 47.3096 365.478 47.3447C365.197 47.5553 364.284 47.6958 363.476 47.6958C363.23 47.6958 362.247 47.6958 361.65 47.6958C360.702 47.6607 360.316 47.5553 360.246 47.2744L360.175 47.0638L360 46.6775C359.965 46.5722 359.965 46.4668 359.965 46.3615C359.965 46.2561 359.965 46.1508 359.965 46.0806L360.105 44.3951L360.035 42.6394L360.14 41.3753L360.035 40.4273L360.211 37.4777C360.211 37.3724 360.211 37.1617 360.175 36.951C359.93 36.8457 359.754 36.8106 359.684 36.8106L358.49 36.8457L355.892 36.7403L355.611 36.7754H353.539C353.153 36.7754 353.047 36.8808 352.766 37.2319C352.521 37.6182 352.275 37.9693 351.994 38.3556C351.678 38.7769 351.643 38.8472 351.467 39.0578L350.554 40.0059L347.57 43.6577C347.113 44.2195 346.481 45.1676 346.306 45.6241L346.025 46.3264L345.814 46.818C345.849 47.0286 346.13 47.2042 346.657 47.3095V47.4851C346.27 47.5905 346.13 47.6256 345.849 47.6256C345.814 47.6256 345.709 47.6256 345.603 47.6256C345.182 47.5905 344.761 47.5905 344.339 47.5905C343.672 47.5553 343.567 47.5553 343.496 47.5553C343.391 47.5553 343.145 47.5553 342.829 47.5553ZM360.175 35.3358C360.246 35.0549 360.281 35.0198 360.281 34.7389C360.281 34.5984 360.316 34.4228 360.351 34.177C360.246 34.0015 360.175 33.8961 360.175 33.861L360.246 31.9649L360.211 30.5252C360.211 30.4901 360.246 30.2794 360.316 29.9985C360.386 29.6123 360.421 29.2962 360.421 29.0153C360.421 28.9451 360.421 28.6993 360.351 28.2428L360.246 28.1375C360.07 28.3482 359.93 28.4886 359.895 28.5237L359.298 29.3313L357.542 31.3679L356.769 32.4916C356.699 32.5969 356.453 32.8778 355.716 33.7557C355.505 34.0015 355.26 34.3175 355.014 34.5984C354.943 34.7037 354.873 34.8091 354.873 34.9144C354.873 34.9846 355.014 35.0549 355.224 35.0549C355.33 35.0549 355.435 35.0549 355.54 35.0549C355.892 35.0198 356.137 35.0198 356.137 35.0198L356.734 35.1251L358.069 35.1953C358.455 35.2656 358.736 35.3358 358.771 35.3358L359.227 35.2304L359.789 35.3007C359.859 35.3358 360 35.3358 360.175 35.3358Z" fill="#2755A6"></path><path d="M365.763 47.4851L367.308 42.6745C367.343 42.6043 367.378 42.499 367.448 42.3234C367.694 41.7967 367.975 41.0242 368.291 40.041C368.326 39.8654 368.361 39.7601 368.361 39.725L368.712 38.2853L368.818 37.864L368.853 37.267L370.152 33.0183L370.363 32.5267C370.433 32.2809 370.503 32.0702 370.538 31.9649L370.819 30.5603L371.522 27.9619C371.627 27.4703 371.697 27.0138 371.697 26.6276C371.697 25.5742 371.1 25.0124 369.801 24.7315L369.766 24.6261L369.871 24.4505L370.047 24.4154L374.892 24.275L375.595 26.1711C375.946 26.452 375.841 26.3116 376.332 27.5406C376.402 27.7512 376.543 27.997 376.683 28.2779L377.034 28.8398C377.07 28.91 377.175 28.9802 377.315 29.0856C377.421 29.2611 377.491 29.4016 377.491 29.4367L377.737 30.2794C377.842 30.5603 377.982 30.8763 378.158 31.1924C378.298 31.4382 378.404 31.6489 378.404 31.7191C378.509 32 378.615 32.2107 378.615 32.2107L378.79 32.3862L379.317 33.9312L379.984 35.3358L380.335 36.1785L380.686 36.7754L381.143 38.1098L381.775 39.3387C381.985 39.9006 382.161 40.2517 382.196 40.2868L382.477 40.6028C382.582 40.7082 382.653 40.954 382.723 41.4456C382.828 41.9372 382.969 42.2883 383.32 42.9203L384.408 38.4609L384.443 38.0747L385.497 33.861L385.743 32.3862L385.988 31.3679L386.304 29.6825C386.41 29.3313 386.445 29.1207 386.445 29.1207L386.55 28.0673L386.656 27.1543C386.656 26.9787 386.62 26.6978 386.55 26.3467C386.585 26.1711 386.62 25.9604 386.62 25.8551C386.62 25.1528 386.269 24.8368 385.391 24.6612L385.462 24.275C385.532 24.275 385.567 24.275 385.602 24.275C385.707 24.275 385.813 24.275 385.848 24.275L386.339 24.3452L387.568 24.3101L388.727 24.275C388.727 24.275 389.078 24.2399 389.605 24.1696C389.675 24.1345 389.816 24.1345 389.991 24.0994C389.956 24.275 389.921 24.4154 389.886 24.4857L388.973 28.4886V29.0153L388.587 29.7527L388.411 30.4901L388.201 31.0519L388.13 31.7893L387.814 32.5618L387.639 33.3694L387.358 34.3175L387.217 35.1953L386.796 36.3892L386.339 38.2151C386.129 38.812 386.023 39.2334 386.023 39.409C386.023 39.4792 386.059 39.5845 386.094 39.7952C386.059 39.9357 386.023 40.0761 385.988 40.1464L385.848 40.6731L385.602 41.6211L384.97 43.447L384.795 44.5707L384.408 45.8348L384.092 47.2393C384.057 47.3095 384.022 47.45 383.952 47.5905L383.566 47.6256C383.144 47.6958 382.758 47.6958 382.617 47.6958C382.301 47.6958 382.161 47.6958 381.775 47.6958C381.705 47.5202 381.599 47.3798 381.564 47.3095C381.424 46.9935 381.248 46.6775 381.108 46.3615C380.897 45.905 380.862 45.8699 380.792 45.7294L379.949 43.4119L378.615 40.6028L378.263 39.5845L376.894 36.5999L376.473 35.406C376.332 34.9847 376.157 34.5984 375.946 34.2121C375.63 33.6152 375.419 33.229 375.384 33.1587L375.068 32.1404L373.944 30.2794C373.734 29.8581 373.734 29.8581 373.558 29.6474L373.312 29.2611L371.838 33.9312L371.486 35.3358L371.17 36.4594L369.906 40.9891L369.204 42.9555L369.064 43.8684L368.712 45.1676C368.642 45.4134 368.642 45.6241 368.642 45.8348C368.642 46.537 368.853 46.8531 369.59 47.0989C369.696 47.0989 369.801 47.134 369.941 47.2042C369.906 47.4149 369.836 47.5202 369.696 47.5202L367.378 47.45L366.184 47.5202C366.079 47.5202 365.938 47.5202 365.763 47.4851Z" fill="#2755A6"></path><path d="M407.015 28.1375L406.874 28.0673C406.945 27.8917 406.98 27.7863 407.015 27.7161C407.155 27.4703 407.226 27.2596 407.226 27.1543C407.226 27.049 407.085 26.8734 406.945 26.8032C406.699 26.6627 406.453 26.5925 406.137 26.5574C405.154 26.3818 404.346 26.2765 403.96 26.2765C403.96 26.2765 403.96 26.2765 403.925 26.2765L402.134 26.3818L401.081 26.2413C401.01 26.2413 400.94 26.2413 400.87 26.2413C400.694 26.2413 400.519 26.2413 400.378 26.3116L399.395 26.5925L398.693 26.6627L397.534 27.1192L396.832 27.365C396.2 27.6459 395.708 28.1024 394.866 29.1207C394.55 29.5069 394.409 29.7527 394.409 29.8932L394.374 30.139L393.882 31.1221L393.777 31.7542L393.005 33.9312V35.1953L392.724 36.5297L392.864 37.0915C392.899 37.1617 392.899 37.3022 392.899 37.5128C392.899 38.2502 393.005 39.1983 393.11 39.3739L393.321 39.6548L393.742 40.954C393.847 41.3051 394.023 41.586 394.198 41.7967L394.514 42.1478L395.111 42.9906L396.059 43.728C396.586 44.1493 396.937 44.4302 396.972 44.4302L398.061 44.8867L398.307 45.0623C398.412 45.0974 398.517 45.1325 398.658 45.1676L399.887 45.273L400.905 45.3783C401.01 45.4134 401.151 45.4134 401.256 45.4134C401.572 45.4134 401.818 45.3783 402.029 45.273L402.907 44.9569L403.223 44.9218C403.293 44.9218 403.398 44.8867 403.539 44.8165C403.679 44.5005 403.749 44.2547 403.784 44.1493L404.171 42.5341L404.346 41.9372V41.6914L404.662 40.5677V39.9006L405.084 38.5662C405.119 38.4609 405.119 38.3556 405.119 38.2502C405.119 37.4426 404.803 37.1617 403.644 37.0212L403.679 36.8457C403.855 36.8106 403.96 36.7754 403.995 36.7754L405.821 36.8106L408.209 36.6701C408.244 36.6701 408.384 36.7052 408.63 36.7052C408.595 36.9159 408.595 37.0564 408.595 37.0915L407.471 41.27L407.436 41.8669L407.226 42.3936L407.05 43.131L406.839 43.5524C406.839 43.6577 406.804 43.728 406.804 43.9035C406.804 43.9035 406.804 44.0089 406.804 44.0791L406.699 44.1844C406.629 44.2547 406.242 44.5005 405.681 44.8165L402.871 46.3264L401.397 46.9584L400.835 47.3095C400.659 47.4149 399.817 47.6607 399.255 47.766C398.658 47.9065 398.166 47.9767 397.64 47.9767C396.586 47.9767 395.392 47.6958 394.866 47.3447L394.444 47.0286L393.777 46.6424C393.672 46.5722 393.321 46.2561 392.829 45.7645L391.74 44.7463C391.6 44.6409 391.495 44.4653 391.389 44.2547L391.214 43.9035L390.582 42.6394C390.371 42.1478 390.195 41.6562 390.125 41.1647L389.915 39.7601L389.739 38.7769C389.739 38.5311 389.704 38.3556 389.704 38.18C389.704 37.9693 389.739 37.7586 389.774 37.6182L390.195 35.3709L390.336 34.5984C390.441 34.2473 390.722 33.5099 391.143 32.5267C391.74 31.1221 391.74 31.087 392.864 29.6825C393.391 29.0504 393.707 28.6291 393.777 28.5588L395.322 27.3299L396.2 26.4871C396.27 26.452 396.762 26.1711 397.499 25.7849L398.728 25.1177L400.659 24.4857C401.467 24.1696 402.31 23.959 402.907 23.959L405.786 23.9941C406.699 23.9941 407.296 24.0292 407.471 24.0643L408.49 24.275L409.473 24.4505L410.14 24.7315C410.456 24.8017 410.596 24.907 410.596 25.0475C410.596 25.223 410.386 25.4337 410 25.7146C409.613 25.9955 409.297 26.2413 408.384 27.0138C407.998 27.2948 407.647 27.5757 407.296 27.8917L407.015 28.1375Z" fill="#2755A6"></path><path d="M415.028 24.4857V24.3101C416.573 24.0994 417.416 24.0292 418.961 24.0292H419.488L419.593 24.0994C419.523 24.3101 419.453 24.4505 419.417 24.5559C419.207 25.1177 419.066 25.5391 419.031 25.6795C418.891 26.136 418.75 26.6978 418.61 27.2948C418.329 28.2428 418.294 28.3482 418.294 28.3482L417.978 28.8046C417.837 28.9802 417.732 29.2611 417.697 29.6123L417.591 30.1741L417.205 31.3679L417.135 31.8595L416.714 32.7374L416.222 34.774L415.625 36.3541L415.344 37.5128C415.169 38.0044 415.063 38.3204 415.063 38.3907L415.028 38.7769L414.677 40.1112C414.642 40.2166 414.642 40.357 414.642 40.5326L414.853 40.7082C414.818 40.8837 414.782 40.9891 414.747 41.0944C414.677 41.3051 414.642 41.5158 414.642 41.6211C414.642 41.7265 414.677 41.7967 414.677 41.9723L414.853 42.0425C414.888 43.0608 415.028 43.447 415.485 43.6577C415.555 43.7982 415.625 43.9035 415.66 43.9738C415.871 44.3951 416.082 44.6409 416.257 44.676L416.749 44.8165C416.749 44.8516 416.995 44.992 417.346 45.2027C417.627 45.3783 418.013 45.5188 418.224 45.5188H418.54L419.137 45.6592L420.576 45.7645C420.752 45.7997 420.787 45.8348 420.822 45.8348C420.998 45.8348 421.208 45.7997 421.419 45.7997L422.367 45.7294L422.894 45.589H423.245L424.158 45.273L424.579 45.2027L425 44.9218C425.352 44.676 425.597 44.4653 425.703 44.3249L426.124 43.7982L426.581 43.3066L427.423 42.0074L427.774 41.6211L428.547 39.725L428.898 38.8823L429.811 35.406L430.513 33.545C430.689 32.9832 430.864 32.4214 430.935 31.8595L431.18 30.3848L431.918 27.5406L431.883 27.2245L431.848 27.1894C431.848 27.049 431.918 26.7329 431.988 26.2765C432.023 26.136 432.023 26.0307 432.023 25.8902C432.023 25.4688 431.777 25.1879 431.321 25.1879C431.216 25.1879 431.11 25.1879 430.97 25.223L430.935 24.8719C431.145 24.8017 431.286 24.7666 431.321 24.7666L433.884 24.5208L434.973 24.275C435.078 24.275 435.148 24.275 435.219 24.275C435.324 24.275 435.359 24.3101 435.464 24.3803C435.394 24.591 435.359 24.7315 435.324 24.7666L434.903 25.7498L434.481 27.365L434.025 28.4886L433.954 29.3313L433.603 30.6657L433.322 31.7893L432.866 33.1939L432.515 34.5633L432.199 35.4411L431.988 36.5297L431.637 37.3724L430.9 39.4441C430.864 39.5494 430.724 39.8303 430.443 40.2868C430.373 40.7784 430.303 40.9891 430.127 41.1295L429.706 41.586L429.214 42.183C429.144 42.2883 428.933 42.4639 428.301 43.0959C427.88 43.4822 427.458 43.8684 427.037 44.2195C426.405 44.7814 426.194 44.9569 426.089 45.0272L424.509 45.9401L424.228 46.1859L423.42 46.6073L422.964 46.9233L420.681 47.6607C419.558 48.0469 419.628 48.0469 418.82 48.0469C418.329 48.0469 417.837 48.0118 417.311 47.9767C416.784 47.9416 416.643 47.9065 416.363 47.8011L415.344 47.45L414.326 47.1691C413.027 46.6775 411.692 44.7463 411.657 43.3768L411.587 41.9372C411.587 41.7616 411.587 41.6211 411.587 41.586C411.587 41.0944 411.763 40.3219 412.008 39.5494C412.184 38.9174 412.395 38.2502 412.605 37.6182C412.851 36.6701 412.886 36.5648 412.957 36.319L413.062 35.6167L414.15 32.2809C414.291 31.7893 414.431 31.2626 414.537 30.7008C414.607 30.139 414.712 29.7527 414.782 29.6123L414.993 29.226L415.45 27.1543C415.695 26.2413 415.836 25.5742 415.836 25.4688C415.836 24.9421 415.555 24.6261 415.028 24.4857Z" fill="#2755A6"></path><path d="M430.133 47.5553C430.555 46.9584 430.871 46.5019 431.117 46.1859C431.714 45.4134 432.1 44.8867 432.17 44.8165C432.451 44.36 432.626 44.0791 432.697 44.044L433.329 43.3417L433.785 42.6043L434.101 42.2883L434.523 41.6211L435.4 40.8135C435.436 40.7433 435.752 40.3219 436.173 39.6899C436.349 39.3387 436.594 39.0578 436.875 38.7769L437.332 38.2853L438.28 37.1617C438.526 36.9159 438.561 36.8457 438.596 36.5999C438.701 36.4945 438.806 36.3892 438.842 36.3541C439.017 36.1785 439.122 36.0732 439.122 36.0381L439.544 35.5114C439.579 35.4411 439.79 35.2304 440.106 34.9144C440.527 34.4579 440.878 34.0015 441.159 33.5099C441.37 33.1587 441.545 32.8778 441.651 32.8076L441.967 32.5267L445.408 28.1726L446.18 27.0841C446.567 26.5574 446.707 26.2765 446.707 25.9955C446.707 25.3284 446.286 24.9773 445.408 24.8017V24.591L445.724 24.4154L451.167 24.0643C451.096 24.2399 451.096 24.3803 451.061 24.4505C450.956 24.907 450.886 25.2582 450.886 25.4688C450.886 25.4688 450.886 25.4688 450.886 25.504L450.956 26.2413L450.886 27.049L450.991 27.6108C450.991 27.6459 451.026 27.7161 451.026 27.7512C451.026 27.9268 450.956 28.3482 450.886 28.9451C450.85 29.1909 450.85 29.4367 450.85 29.6825C450.85 29.8229 450.85 29.9985 450.85 30.139L450.921 30.8412L450.78 32.316V32.9481L450.71 33.7908L450.921 34.5984L450.78 35.1251L450.745 35.6869L450.675 36.0732V36.8808V37.0212C450.675 37.1266 450.675 37.1617 450.675 37.1968L450.85 37.6182C450.85 37.6533 450.85 37.6884 450.85 37.7235C450.85 37.8289 450.815 37.9693 450.78 38.1449C450.675 38.496 450.605 38.812 450.605 39.093C450.605 39.1632 450.605 39.2334 450.64 39.3036L450.78 40.9891L450.71 44.4653L450.886 45.6241C450.921 45.8348 450.956 45.9752 450.991 46.0455L451.167 46.2561L451.342 46.6073C451.483 46.8882 451.834 47.0286 452.29 47.0286C452.466 47.0286 452.606 46.9935 452.922 46.9233C452.922 47.1691 452.887 47.3096 452.782 47.3447C452.501 47.5553 451.588 47.6958 450.78 47.6958C450.534 47.6958 449.551 47.6958 448.954 47.6958C448.006 47.6607 447.62 47.5553 447.55 47.2744L447.48 47.0638L447.304 46.6775C447.269 46.5722 447.269 46.4668 447.269 46.3615C447.269 46.2561 447.269 46.1508 447.269 46.0806L447.409 44.3951L447.339 42.6394L447.444 41.3753L447.339 40.4273L447.515 37.4777C447.515 37.3724 447.515 37.1617 447.48 36.951C447.234 36.8457 447.058 36.8106 446.988 36.8106L445.794 36.8457L443.196 36.7403L442.915 36.7754H440.843C440.457 36.7754 440.351 36.8808 440.071 37.2319C439.825 37.6182 439.579 37.9693 439.298 38.3556C438.982 38.7769 438.947 38.8472 438.771 39.0578L437.858 40.0059L434.874 43.6577C434.417 44.2195 433.785 45.1676 433.61 45.6241L433.329 46.3264L433.118 46.818C433.153 47.0286 433.434 47.2042 433.961 47.3095V47.4851C433.575 47.5905 433.434 47.6256 433.153 47.6256C433.118 47.6256 433.013 47.6256 432.907 47.6256C432.486 47.5905 432.065 47.5905 431.643 47.5905C430.976 47.5553 430.871 47.5553 430.801 47.5553C430.695 47.5553 430.449 47.5553 430.133 47.5553ZM447.48 35.3358C447.55 35.0549 447.585 35.0198 447.585 34.7389C447.585 34.5984 447.62 34.4228 447.655 34.177C447.55 34.0015 447.48 33.8961 447.48 33.861L447.55 31.9649L447.515 30.5252C447.515 30.4901 447.55 30.2794 447.62 29.9985C447.69 29.6123 447.725 29.2962 447.725 29.0153C447.725 28.9451 447.725 28.6993 447.655 28.2428L447.55 28.1375C447.374 28.3482 447.234 28.4886 447.199 28.5237L446.602 29.3313L444.846 31.3679L444.074 32.4916C444.003 32.5969 443.757 32.8778 443.02 33.7557C442.809 34.0015 442.564 34.3175 442.318 34.5984C442.248 34.7037 442.177 34.8091 442.177 34.9144C442.177 34.9846 442.318 35.0549 442.529 35.0549C442.634 35.0549 442.739 35.0549 442.845 35.0549C443.196 35.0198 443.441 35.0198 443.441 35.0198L444.038 35.1251L445.373 35.1953C445.759 35.2656 446.04 35.3358 446.075 35.3358L446.531 35.2304L447.093 35.3007C447.164 35.3358 447.304 35.3358 447.48 35.3358Z" fill="#2755A6"></path><path d="M474.91 28.1375L474.77 28.0673C474.84 27.8917 474.875 27.7863 474.91 27.7161C475.051 27.4703 475.121 27.2596 475.121 27.1543C475.121 27.049 474.981 26.8734 474.84 26.8032C474.594 26.6627 474.349 26.5925 474.033 26.5574C473.049 26.3818 472.242 26.2765 471.856 26.2765C471.856 26.2765 471.856 26.2765 471.82 26.2765L470.03 26.3818L468.976 26.2413C468.906 26.2413 468.836 26.2413 468.766 26.2413C468.59 26.2413 468.414 26.2413 468.274 26.3116L467.291 26.5925L466.589 26.6627L465.43 27.1192L464.728 27.365C464.095 27.6459 463.604 28.1024 462.761 29.1207C462.445 29.5069 462.305 29.7527 462.305 29.8932L462.27 30.139L461.778 31.1221L461.673 31.7542L460.9 33.9312V35.1953L460.619 36.5297L460.76 37.0915C460.795 37.1617 460.795 37.3022 460.795 37.5128C460.795 38.2502 460.9 39.1983 461.005 39.3739L461.216 39.6548L461.637 40.954C461.743 41.3051 461.918 41.586 462.094 41.7967L462.41 42.1478L463.007 42.9906L463.955 43.728C464.482 44.1493 464.833 44.4302 464.868 44.4302L465.956 44.8867L466.202 45.0623C466.308 45.0974 466.413 45.1325 466.553 45.1676L467.782 45.273L468.801 45.3783C468.906 45.4134 469.046 45.4134 469.152 45.4134C469.468 45.4134 469.714 45.3783 469.924 45.273L470.802 44.9569L471.118 44.9218C471.188 44.9218 471.294 44.8867 471.434 44.8165C471.575 44.5005 471.645 44.2547 471.68 44.1493L472.066 42.5341L472.242 41.9372V41.6914L472.558 40.5677V39.9006L472.979 38.5662C473.014 38.4609 473.014 38.3556 473.014 38.2502C473.014 37.4426 472.698 37.1617 471.54 37.0212L471.575 36.8457C471.75 36.8106 471.856 36.7754 471.891 36.7754L473.717 36.8106L476.104 36.6701C476.139 36.6701 476.28 36.7052 476.526 36.7052C476.491 36.9159 476.491 37.0564 476.491 37.0915L475.367 41.27L475.332 41.8669L475.121 42.3936L474.946 43.131L474.735 43.5524C474.735 43.6577 474.7 43.728 474.7 43.9035C474.7 43.9035 474.7 44.0089 474.7 44.0791L474.594 44.1844C474.524 44.2547 474.138 44.5005 473.576 44.8165L470.767 46.3264L469.292 46.9584L468.73 47.3095C468.555 47.4149 467.712 47.6607 467.15 47.766C466.553 47.9065 466.062 47.9767 465.535 47.9767C464.482 47.9767 463.288 47.6958 462.761 47.3447L462.34 47.0286L461.673 46.6424C461.567 46.5722 461.216 46.2561 460.725 45.7645L459.636 44.7463C459.496 44.6409 459.39 44.4653 459.285 44.2547L459.109 43.9035L458.477 42.6394C458.267 42.1478 458.091 41.6562 458.021 41.1647L457.81 39.7601L457.635 38.7769C457.635 38.5311 457.599 38.3556 457.599 38.18C457.599 37.9693 457.635 37.7586 457.67 37.6182L458.091 35.3709L458.231 34.5984C458.337 34.2473 458.618 33.5099 459.039 32.5267C459.636 31.1221 459.636 31.087 460.76 29.6825C461.286 29.0504 461.602 28.6291 461.673 28.5588L463.218 27.3299L464.095 26.4871C464.166 26.452 464.657 26.1711 465.395 25.7849L466.624 25.1177L468.555 24.4857C469.362 24.1696 470.205 23.959 470.802 23.959L473.681 23.9941C474.594 23.9941 475.191 24.0292 475.367 24.0643L476.385 24.275L477.368 24.4505L478.036 24.7315C478.352 24.8017 478.492 24.907 478.492 25.0475C478.492 25.223 478.281 25.4337 477.895 25.7146C477.509 25.9955 477.193 26.2413 476.28 27.0138C475.894 27.2948 475.543 27.5757 475.191 27.8917L474.91 28.1375Z" fill="#2755A6"></path><path d="M481.589 24.8719L481.554 24.7666C481.695 24.5559 481.835 24.4505 481.941 24.4505H482.643C482.713 24.4505 482.854 24.4505 483.134 24.4154L484.82 24.3452C485.136 24.3452 485.276 24.3452 485.592 24.3452C485.698 24.3452 485.873 24.3452 486.014 24.3452C486.365 24.3803 486.611 24.4154 486.716 24.4154C486.751 24.4154 486.821 24.3803 486.821 24.3803L487.173 24.3101L488.472 24.3452L489.385 24.3101L489.982 24.3803L494.09 24.5208L495.143 24.5559C495.459 24.5559 495.775 24.5208 496.478 24.4857C496.302 24.6612 496.197 24.7666 496.162 24.8017L495.459 25.1879L494.968 25.504L494.301 25.82C493.739 26.136 493.353 26.3116 493.317 26.3116L492.404 26.3467L491.667 26.3818L490.684 26.3116H488.296L486.716 26.2413C486.365 26.2765 486.26 26.3467 486.189 26.7329C486.189 26.9436 486.084 27.2245 485.979 27.5757C485.908 27.7512 485.873 27.9268 485.873 28.0673V28.1024L485.908 28.3131L485.452 29.4718L485.312 30.3848L484.855 31.8946C484.75 32.2107 484.715 32.5267 484.609 33.4045H484.96C486.014 33.4396 486.857 33.4748 487.243 33.4748C487.383 33.4748 487.559 33.4396 487.734 33.4396C488.472 33.3694 488.928 33.3343 488.963 33.3343L493.036 33.5801C492.756 34.0015 492.861 33.8961 491.772 34.6335C490.789 35.3358 490.263 35.6518 490.192 35.6518H488.015C487.945 35.6518 487.664 35.6869 487.173 35.7572C486.646 35.8274 486.084 35.8625 485.487 35.8625L484.399 35.8274C483.942 35.8274 483.837 35.8976 483.696 36.3892L483.451 37.1617L483.38 37.864L482.994 39.0578L482.783 40.2868C482.748 40.3219 482.573 40.8135 482.292 41.586C482.221 41.8318 482.151 42.0425 482.151 42.1478V42.5341C482.151 42.6043 481.941 43.131 481.625 43.9035C481.519 44.1844 481.449 44.4302 481.449 44.6409C481.449 44.7111 481.449 44.8516 481.484 45.0272C481.66 45.0272 481.765 45.0623 481.835 45.0623C482.362 45.1676 482.889 45.2378 483.029 45.2378C483.029 45.2378 483.029 45.2378 483.064 45.2378L484.75 45.1676L486.119 45.3081L487.559 45.3432L488.366 45.4485L489.35 45.4836H490.122C490.227 45.4836 490.333 45.4836 490.543 45.4485C491.035 45.3783 491.667 45.2378 491.737 45.2027L492.264 44.9569C492.299 44.9569 492.299 44.9218 492.334 44.9218C492.475 44.9218 492.545 45.0272 492.545 45.0974C492.545 45.1676 492.545 45.2027 492.51 45.2378L492.124 45.4485L491.105 46.2913C490.859 46.5019 490.508 46.7126 490.122 46.9233L488.998 47.5202C488.788 47.5905 487.945 47.6958 487.137 47.7309C486.962 47.766 486.751 47.766 486.54 47.766L484.785 47.7309C484.153 47.7309 483.767 47.7309 483.696 47.6958C483.31 47.6607 483.064 47.6256 482.959 47.6256C482.959 47.6256 482.959 47.6256 482.924 47.6256L482.643 47.6607L477.903 47.7309L477.551 47.8363C477.551 47.8011 477.551 47.8011 477.551 47.7309C477.516 47.6607 477.516 47.5905 477.516 47.5202C477.516 47.0989 477.762 46.2913 478.219 45.3081C478.429 44.8165 478.605 44.36 478.675 43.9035L478.851 42.9906L479.412 41.2349L480.044 38.7067L480.536 36.9159L480.922 35.0549L481.379 33.7557L482.011 31.0168L482.362 29.7527L482.538 28.6642L482.713 27.8566L482.783 27.1543L482.994 26.5223C482.994 26.4871 482.994 26.452 482.994 26.4169C482.994 26.0307 482.783 25.3635 482.608 25.1879C482.397 24.9773 482.151 24.8719 481.589 24.8719Z" fill="#2755A6"></path><path d="M501.863 47.5905V47.45C502.389 46.8531 502.635 46.4317 502.811 45.6592L502.986 44.8165L503.443 43.7631C503.478 43.728 503.548 43.3768 503.689 42.815L504.075 41.5509L504.812 38.9525L505.163 37.8289L505.269 37.1968L505.76 35.9327L506.357 33.9312L506.884 32.7023L507.305 31.1924L507.867 29.6825L508.078 28.91L508.324 28.1024L508.429 27.6108L508.85 26.3467C508.85 26.2413 508.885 26.136 508.885 26.0307C508.885 25.1879 508.569 24.8017 507.902 24.8017C507.832 24.8017 507.727 24.8017 507.621 24.8017C507.621 24.7315 507.586 24.6612 507.586 24.591C507.586 24.4505 507.727 24.3452 507.902 24.3452L509.307 24.3101L510.536 24.1345H512.327C512.397 24.0994 512.537 24.0994 512.713 24.0643V24.1696C512.713 24.2399 512.572 24.6963 512.362 25.3284L511.343 28.4886C511.308 28.594 511.238 28.7695 511.133 29.0504C510.817 29.8932 510.606 30.455 510.536 30.7008L510.22 31.8244L509.482 34.1419L509.412 34.5633L507.937 38.6014L507.27 41.2349L506.252 44.36C506.217 44.4653 506.217 44.5707 506.217 44.676C506.217 45.0623 506.427 45.2378 506.849 45.2378L507.972 45.273L509.377 45.4836L510.641 45.4485L514.468 45.3783C516.786 45.3432 517.278 45.273 518.858 44.7814L519.279 44.8867C518.331 46.1157 515.803 47.4851 514.152 47.6607L513.24 47.766L512.994 47.8011L511.695 47.7309H507.024L506.673 47.8011L505.971 47.6958L504.707 47.766L504.005 47.6607L502.249 47.6256C502.144 47.6256 502.038 47.6256 501.863 47.5905Z" fill="#2755A6"></path><path d="M518.123 47.5553C518.545 46.9584 518.861 46.5019 519.107 46.1859C519.703 45.4134 520.09 44.8867 520.16 44.8165C520.441 44.36 520.616 44.0791 520.687 44.044L521.319 43.3417L521.775 42.6043L522.091 42.2883L522.513 41.6211L523.39 40.8135C523.425 40.7433 523.742 40.3219 524.163 39.6899C524.338 39.3387 524.584 39.0578 524.865 38.7769L525.322 38.2853L526.27 37.1617C526.515 36.9159 526.551 36.8457 526.586 36.5999C526.691 36.4945 526.796 36.3892 526.832 36.3541C527.007 36.1785 527.112 36.0732 527.112 36.0381L527.534 35.5114C527.569 35.4411 527.78 35.2304 528.096 34.9144C528.517 34.4579 528.868 34.0015 529.149 33.5099C529.36 33.1587 529.535 32.8778 529.641 32.8076L529.957 32.5267L533.398 28.1726L534.17 27.0841C534.557 26.5574 534.697 26.2765 534.697 25.9955C534.697 25.3284 534.276 24.9773 533.398 24.8017V24.591L533.714 24.4154L539.156 24.0643C539.086 24.2399 539.086 24.3803 539.051 24.4505C538.946 24.907 538.876 25.2582 538.876 25.4688C538.876 25.4688 538.876 25.4688 538.876 25.504L538.946 26.2413L538.876 27.049L538.981 27.6108C538.981 27.6459 539.016 27.7161 539.016 27.7512C539.016 27.9268 538.946 28.3482 538.876 28.9451C538.84 29.1909 538.84 29.4367 538.84 29.6825C538.84 29.8229 538.84 29.9985 538.84 30.139L538.911 30.8412L538.77 32.316V32.9481L538.7 33.7908L538.911 34.5984L538.77 35.1251L538.735 35.6869L538.665 36.0732V36.8808V37.0212C538.665 37.1266 538.665 37.1617 538.665 37.1968L538.84 37.6182C538.84 37.6533 538.84 37.6884 538.84 37.7235C538.84 37.8289 538.805 37.9693 538.77 38.1449C538.665 38.496 538.595 38.812 538.595 39.093C538.595 39.1632 538.595 39.2334 538.63 39.3036L538.77 40.9891L538.7 44.4653L538.876 45.6241C538.911 45.8348 538.946 45.9752 538.981 46.0455L539.156 46.2561L539.332 46.6073C539.472 46.8882 539.824 47.0286 540.28 47.0286C540.456 47.0286 540.596 46.9935 540.912 46.9233C540.912 47.1691 540.877 47.3096 540.772 47.3447C540.491 47.5553 539.578 47.6958 538.77 47.6958C538.524 47.6958 537.541 47.6958 536.944 47.6958C535.996 47.6607 535.61 47.5553 535.54 47.2744L535.469 47.0638L535.294 46.6775C535.259 46.5722 535.259 46.4668 535.259 46.3615C535.259 46.2561 535.259 46.1508 535.259 46.0806L535.399 44.3951L535.329 42.6394L535.434 41.3753L535.329 40.4273L535.505 37.4777C535.505 37.3724 535.505 37.1617 535.469 36.951C535.224 36.8457 535.048 36.8106 534.978 36.8106L533.784 36.8457L531.186 36.7403L530.905 36.7754H528.833C528.447 36.7754 528.341 36.8808 528.06 37.2319C527.815 37.6182 527.569 37.9693 527.288 38.3556C526.972 38.7769 526.937 38.8472 526.761 39.0578L525.848 40.0059L522.864 43.6577C522.407 44.2195 521.775 45.1676 521.6 45.6241L521.319 46.3264L521.108 46.818C521.143 47.0286 521.424 47.2042 521.951 47.3095V47.4851C521.564 47.5905 521.424 47.6256 521.143 47.6256C521.108 47.6256 521.003 47.6256 520.897 47.6256C520.476 47.5905 520.055 47.5905 519.633 47.5905C518.966 47.5553 518.861 47.5553 518.79 47.5553C518.685 47.5553 518.439 47.5553 518.123 47.5553ZM535.469 35.3358C535.54 35.0549 535.575 35.0198 535.575 34.7389C535.575 34.5984 535.61 34.4228 535.645 34.177C535.54 34.0015 535.469 33.8961 535.469 33.861L535.54 31.9649L535.505 30.5252C535.505 30.4901 535.54 30.2794 535.61 29.9985C535.68 29.6123 535.715 29.2962 535.715 29.0153C535.715 28.9451 535.715 28.6993 535.645 28.2428L535.54 28.1375C535.364 28.3482 535.224 28.4886 535.189 28.5237L534.592 29.3313L532.836 31.3679L532.063 32.4916C531.993 32.5969 531.747 32.8778 531.01 33.7557C530.799 34.0015 530.554 34.3175 530.308 34.5984C530.238 34.7037 530.167 34.8091 530.167 34.9144C530.167 34.9846 530.308 35.0549 530.518 35.0549C530.624 35.0549 530.729 35.0549 530.834 35.0549C531.186 35.0198 531.431 35.0198 531.431 35.0198L532.028 35.1251L533.363 35.1953C533.749 35.2656 534.03 35.3358 534.065 35.3358L534.521 35.2304L535.083 35.3007C535.153 35.3358 535.294 35.3358 535.469 35.3358Z" fill="#2755A6"></path><path d="M541.057 47.7309C541.549 46.9584 541.513 47.0989 542.005 45.6241L543.094 42.3234L543.445 40.7433L544.007 38.9525L544.112 38.3907C544.112 38.2853 544.217 38.0395 544.358 37.6533C544.533 37.2319 544.744 36.4945 544.99 35.5114C545.235 34.5633 545.446 33.8259 545.587 33.3694L546.429 30.8061L546.921 28.8398L547.658 26.5925C547.764 26.2765 547.799 25.9604 547.799 25.7146C547.799 25.1879 547.483 24.907 546.675 24.7666C546.64 24.6963 546.64 24.6261 546.64 24.5559C546.64 24.4154 546.745 24.3452 546.956 24.3452L548.185 24.3101C548.677 24.3101 549.238 24.275 549.87 24.1696C550.327 24.1345 550.713 24.0994 550.854 24.0994C550.854 24.0994 550.854 24.0994 550.889 24.0994C551.205 24.0994 551.38 24.0994 551.415 24.0994C551.451 24.0994 551.486 24.0994 551.521 24.0994L551.942 23.959L552.785 24.0292L554.119 23.959L555.138 24.0994C555.418 24.1345 555.594 24.1345 555.629 24.1696L555.98 24.3803L557.034 24.591C557.104 24.6261 557.174 24.6612 557.279 24.7315C557.35 24.7666 557.49 24.8368 557.631 24.907C557.666 25.0826 557.736 25.1879 557.771 25.223L558.473 25.8902C558.544 25.9604 558.649 26.136 558.754 26.3818L558.649 26.6276C558.684 26.8032 558.719 26.9436 558.754 27.049C558.895 27.5757 559 28.1024 559 28.2428C559 28.2779 559 28.3131 559 28.3482L558.789 28.91L558.368 30.4199C558.263 30.7359 557.876 31.1924 557.279 31.684L556.542 32.3862L555.524 32.8778L554.857 33.2992L554.4 33.4396C554.33 33.4748 554.189 33.5099 554.049 33.5801V33.7206C554.225 33.8259 554.365 33.8961 554.4 33.9312L555.559 34.2824L556.402 35.0198L557.139 35.5114C557.279 35.6167 557.35 35.6869 557.35 35.7572L557.455 36.1785L558.052 37.2319L558.122 37.864L558.333 38.7067L558.087 39.9006L557.947 41.0944C557.947 41.1295 557.666 41.586 557.209 42.3234L556.683 43.2013C556.683 43.2013 556.437 43.447 556.086 43.7631C555.699 44.1142 555.454 44.3249 555.348 44.4302C554.435 45.0623 553.312 45.6592 552.048 46.1859L548.922 47.5202C548.22 47.6958 546.745 47.9065 546.078 47.9065H544.042C543.585 47.9065 543.304 47.9065 543.234 47.8714L542.848 47.7309L541.513 47.8714C541.408 47.8714 541.268 47.8363 541.057 47.7309ZM544.919 45.2378C545.165 45.2027 545.271 45.2027 545.411 45.2027C545.446 45.2027 545.832 45.273 546.359 45.3432C546.535 45.3432 546.816 45.3783 547.202 45.3783L547.272 45.4836C547.448 45.5188 547.588 45.5188 547.729 45.5188C547.834 45.5188 547.974 45.4836 548.08 45.4836C548.325 45.4485 548.466 45.4134 548.536 45.4134C548.571 45.4134 548.606 45.4134 548.606 45.4485L548.993 45.5539L549.519 45.4836L550.081 45.5539H550.116C550.257 45.5539 550.467 45.5188 550.713 45.4836L552.012 45.2378C552.574 45.1325 553.628 44.2195 553.944 43.5524L554.576 42.3936C554.576 42.3585 554.646 41.9723 554.751 41.3402C554.822 40.638 554.892 40.1815 554.892 40.1464C554.892 39.9357 554.681 39.0929 554.505 38.5662C554.295 37.9693 554.189 37.6884 553.909 37.3724C553.628 37.0212 553.031 36.5297 552.785 36.4243L552.539 36.319L552.048 36.0381C552.012 36.0029 551.872 35.9678 551.661 35.9327L550.327 35.6167L549.73 35.5816C549.449 35.5465 549.133 35.5465 548.887 35.5114C548.887 35.5114 548.817 35.5114 548.325 35.5114C547.764 35.5114 547.693 35.6518 547.623 36.5297L547.272 37.5479L546.956 38.4258C546.78 38.9174 546.675 39.2685 546.675 39.3739V39.8655L546.113 41.4807L545.797 42.7799L545.376 43.7982L545.271 44.3951L545.095 44.7111C545.06 44.8516 544.99 45.0272 544.919 45.2378ZM548.009 34.9847C548.045 34.9847 548.08 35.0198 548.115 35.0198C548.22 35.0198 548.255 34.9846 548.431 34.8442C548.501 34.8091 548.641 34.7037 548.852 34.5984C549.098 34.4579 549.379 34.2473 549.695 33.9664C549.87 33.8259 550.116 33.6503 550.151 33.6503L551.029 33.7206L551.732 33.6152L552.539 33.5099L553.066 33.2992L554.049 32.9129C554.154 32.8427 554.4 32.5618 554.646 32.2458C554.892 31.9298 554.927 31.9298 555.278 30.8412C555.524 30.1038 555.629 29.7527 555.629 29.5771C555.629 29.0153 555.418 28.0321 555.208 27.7161C554.435 26.5574 553.382 26.0307 551.732 26.0307C551.31 26.0307 551.029 26.0658 550.503 26.136C550.503 26.3116 550.503 26.452 550.503 26.452L549.625 29.1207L549.695 29.5771C549.695 29.6123 549.66 29.6825 549.59 29.7878L549.414 30.4199L548.747 32.1053L548.431 33.4748L548.15 34.3526L548.115 34.6335C548.08 34.7037 548.045 34.8442 548.009 34.9847Z" fill="#2755A6"></path><path d="M136.373 40.0577C136.185 40.0577 135.993 40.0577 135.806 40.0577C123.662 33.3193 113.53 24.2284 105.406 12.7831C103.726 10.506 103.064 8.04451 103.417 5.39694C113.677 20.1078 126.557 31.9464 142.056 40.9109C140.088 41.1725 138.193 40.8881 136.373 40.0577Z" fill="#B6E4F4"></path><path d="M105.122 17.8991C104.414 37.1941 95.3231 51.1149 77.847 59.6616C63.3819 65.1832 49.3663 64.2351 35.7984 56.8209C23.0784 48.0319 18.2486 36.0055 21.3087 20.7381C21.2718 44.7558 33.2052 57.6355 57.1071 59.3771C66.1787 59.4474 74.4181 56.8893 81.8254 51.7066C70.294 51.5362 63.7576 45.76 62.2214 34.3762C63.9297 38.8304 66.6756 42.5243 70.4608 45.4563C74.592 47.6737 78.9478 49.2837 83.5302 50.2862C94.2679 41.8818 101.466 31.0861 105.122 17.8991Z" fill="#B5E4F7"></path><path d="M22.7291 22.4445C25.2643 24.6971 27.7275 27.0638 30.1152 29.5463C35.2769 33.8565 41.2428 36.0335 48.0127 36.0809C52.279 35.5894 56.54 35.3067 60.7993 35.2294C51.194 40.0821 41.5342 40.0821 31.82 35.2294C26.8935 32.2939 23.8632 28.0329 22.7291 22.4445Z" fill="#B4E3F4"></path><path d="M135.806 40.0578C135.993 40.0578 136.185 40.0578 136.373 40.0578C125.103 52.1369 111.277 59.8074 94.893 63.0713C111.763 63.5769 128.051 66.7003 143.759 72.4466C143.564 72.9224 143.187 73.112 142.623 73.0155C108.658 64.453 74.5639 63.9789 40.3421 71.5951C27.5993 74.4885 15.0989 77.9928 2.84069 82.1064C1.89438 82.1064 0.946314 82.1064 0 82.1064C0 81.9185 0 81.7271 0 81.5393C8.49224 76.4654 17.5832 72.7714 27.2745 70.4592C40.5089 66.9267 53.9574 64.7497 67.6184 63.9245C70.7663 64.3389 73.6088 63.77 76.1405 62.2198C90.9005 61.9862 104.728 58.294 117.62 51.1396C123.621 47.2912 129.68 43.5972 135.806 40.0578Z" fill="#2755A6"></path><path d="M76.1405 62.2196C73.6088 63.7699 70.7663 64.3387 67.6184 63.9244C70.3064 62.9236 73.1488 62.3548 76.1405 62.2196Z" fill="#2755A6"></path><path d="M83.5284 27.8416C91.2167 27.8416 97.4492 21.609 97.4492 13.9208C97.4492 6.23254 91.2167 0 83.5284 0C75.8402 0 69.6076 6.23254 69.6076 13.9208C69.6076 21.609 75.8402 27.8416 83.5284 27.8416Z" fill="#F15E4A"></path><path d="M83.5284 0C75.8508 0 69.6058 6.24494 69.6058 13.9208C69.6058 21.5984 75.8508 27.8434 83.5284 27.8434C91.2043 27.8434 97.4492 21.5984 97.4492 13.9208C97.4492 6.24494 91.2043 0 83.5284 0ZM95.8586 13.9208C95.8586 15.1129 95.6795 16.2611 95.3617 17.3532L88.3074 14.5054C88.3197 14.358 88.3302 14.2087 88.3302 14.0577C88.3302 12.662 87.7456 11.3996 86.808 10.5007L91.2552 4.32599C94.059 6.58731 95.8586 10.046 95.8586 13.9208ZM83.3915 17.4076C81.5445 17.4076 80.0416 15.9065 80.0416 14.0577C80.0416 12.2108 81.5445 10.7079 83.3915 10.7079C85.2384 10.7079 86.7413 12.2108 86.7413 14.0577C86.7396 15.9047 85.2367 17.4076 83.3915 17.4076ZM89.9507 3.41479L85.5071 9.58602L85.5668 9.62816C84.9101 9.30336 84.1728 9.11549 83.3897 9.11549C82.5101 9.11549 81.685 9.34902 80.9686 9.75458L76.59 3.73434C78.5669 2.38071 80.9563 1.58889 83.5284 1.58889C85.8828 1.59065 88.0774 2.26657 89.9507 3.41479ZM75.3434 4.72453L79.7291 10.7536C78.9373 11.6314 78.451 12.7866 78.451 14.056C78.451 14.2632 78.4685 14.4668 78.4913 14.667L71.595 16.9669C71.344 15.989 71.1982 14.9742 71.1982 13.9191C71.1982 10.2637 72.8064 6.98586 75.3434 4.72453ZM72.0831 18.4821L78.9443 16.1962C79.6343 17.6253 80.9897 18.6717 82.6067 18.9315L82.7208 26.2106C77.8839 25.8946 73.8054 22.787 72.0831 18.4821ZM84.3114 26.2106L84.1973 18.9263C85.8582 18.6524 87.2382 17.5516 87.9036 16.0575L94.8227 18.8508C93.0144 22.9731 89.0184 25.9139 84.3114 26.2106Z" fill="#4A3D3B"></path><path d="M83.5284 15.0253C84.0639 15.0253 84.4958 14.5916 84.4958 14.0579C84.4958 13.5241 84.0621 13.0905 83.5284 13.0905C82.9947 13.0905 82.561 13.5241 82.561 14.0579C82.561 14.5916 82.9947 15.0253 83.5284 15.0253Z" fill="#4A3D3B"></path><path d="M40.3851 49.8342C40.5537 49.5954 40.6801 49.4128 40.7784 49.2864C41.0172 48.9774 41.1717 48.7667 41.1998 48.7386C41.3121 48.556 41.3824 48.4437 41.4105 48.4296L41.6633 48.1487L41.8459 47.8538L41.9723 47.7273L42.1408 47.4605L42.492 47.1374C42.506 47.1093 42.6324 46.9408 42.801 46.688C42.8712 46.5475 42.9695 46.4352 43.0819 46.3228L43.2645 46.1262L43.6437 45.6767C43.742 45.5784 43.756 45.5503 43.7701 45.452C43.8122 45.4098 43.8544 45.3677 43.8684 45.3537C43.9386 45.2834 43.9808 45.2413 43.9808 45.2272L44.1493 45.0166C44.1634 44.9885 44.2476 44.9042 44.374 44.7778C44.5426 44.5952 44.683 44.4126 44.7954 44.216C44.8797 44.0755 44.9499 43.9632 44.992 43.9351L45.1185 43.8227L46.4949 42.0811L46.8039 41.6457C46.9584 41.435 47.0146 41.3226 47.0146 41.2102C47.0146 40.9434 46.846 40.8029 46.4949 40.7327V40.6484L46.6213 40.5782L48.7984 40.4377C48.7703 40.508 48.7703 40.5642 48.7562 40.5922C48.7141 40.7748 48.686 40.9153 48.686 40.9996C48.686 40.9996 48.686 40.9996 48.686 41.0136L48.7141 41.3086L48.686 41.6316L48.7281 41.8563C48.7281 41.8704 48.7422 41.8985 48.7422 41.9125C48.7422 41.9827 48.7141 42.1513 48.686 42.3901C48.672 42.4884 48.672 42.5867 48.672 42.685C48.672 42.7412 48.672 42.8114 48.672 42.8676L48.7001 43.1485L48.6439 43.7384V43.9912L48.6158 44.3283L48.7001 44.6514L48.6439 44.8621L48.6298 45.0868L48.6017 45.2413V45.5643V45.6205C48.6017 45.6627 48.6017 45.6767 48.6017 45.6908L48.672 45.8593C48.672 45.8733 48.672 45.8874 48.672 45.9014C48.672 45.9436 48.6579 45.9998 48.6439 46.07C48.6017 46.2104 48.5736 46.3368 48.5736 46.4492C48.5736 46.4773 48.5736 46.5054 48.5877 46.5335L48.6439 47.2077L48.6158 48.5982L48.686 49.0617C48.7001 49.1459 48.7141 49.2021 48.7281 49.2302L48.7984 49.3145L48.8686 49.4549C48.9248 49.5673 49.0652 49.6235 49.2478 49.6235C49.3181 49.6235 49.3742 49.6094 49.5006 49.5813C49.5006 49.6797 49.4866 49.7358 49.4445 49.7499C49.3321 49.8342 48.9669 49.8903 48.6439 49.8903C48.5456 49.8903 48.1523 49.8903 47.9135 49.8903C47.5343 49.8763 47.3798 49.8342 47.3517 49.7218L47.3236 49.6375L47.2534 49.483C47.2393 49.4409 47.2393 49.3988 47.2393 49.3566C47.2393 49.3145 47.2393 49.2723 47.2393 49.2443L47.2955 48.5701L47.2674 47.8678L47.3095 47.3622L47.2674 46.9829L47.3376 45.8031C47.3376 45.761 47.3376 45.6767 47.3236 45.5924C47.2253 45.5503 47.155 45.5363 47.127 45.5363L46.6494 45.5503L45.61 45.5082L45.4977 45.5222H44.669C44.5145 45.5222 44.4724 45.5643 44.36 45.7048C44.2617 45.8593 44.1634 45.9998 44.051 46.1543C43.9246 46.3228 43.9105 46.3509 43.8403 46.4352L43.4751 46.8144L42.2813 48.2751C42.0987 48.4998 41.8459 48.8791 41.7756 49.0617L41.6633 49.3426L41.579 49.5392C41.593 49.6235 41.7054 49.6937 41.9161 49.7358V49.8061C41.7616 49.8482 41.7054 49.8623 41.593 49.8623C41.579 49.8623 41.5369 49.8623 41.4947 49.8623C41.3262 49.8482 41.1576 49.8482 40.9891 49.8482C40.7222 49.8342 40.6801 49.8342 40.652 49.8342C40.6099 49.8342 40.5115 49.8342 40.3851 49.8342ZM47.3236 44.9463C47.3517 44.834 47.3657 44.8199 47.3657 44.7076C47.3657 44.6514 47.3798 44.5812 47.3938 44.4828C47.3517 44.4126 47.3236 44.3705 47.3236 44.3564L47.3517 43.598L47.3376 43.0221C47.3376 43.0081 47.3517 42.9238 47.3798 42.8114C47.4079 42.6569 47.4219 42.5305 47.4219 42.4182C47.4219 42.3901 47.4219 42.2917 47.3938 42.1092L47.3517 42.067C47.2815 42.1513 47.2253 42.2075 47.2112 42.2215L46.9725 42.5446L46.2702 43.3592L45.9612 43.8087C45.9331 43.8508 45.8348 43.9632 45.5398 44.3143C45.4555 44.4126 45.3572 44.539 45.2589 44.6514C45.2308 44.6935 45.2027 44.7357 45.2027 44.7778C45.2027 44.8059 45.2589 44.834 45.3432 44.834C45.3853 44.834 45.4275 44.834 45.4696 44.834C45.61 44.8199 45.7084 44.8199 45.7084 44.8199L45.9471 44.8621L46.4809 44.8902C46.6354 44.9182 46.7477 44.9463 46.7618 44.9463L46.9444 44.9042L47.1691 44.9323C47.1972 44.9463 47.2534 44.9463 47.3236 44.9463Z" fill="#F26522"></path><path d="M49.5586 49.8482V49.792C49.7693 49.5533 49.8676 49.3847 49.9378 49.0757L50.008 48.7386L50.1906 48.3173C50.2047 48.3032 50.2328 48.1628 50.2889 47.938L50.4434 47.4324L50.7384 46.393L50.8789 45.9436L50.921 45.6908L51.1176 45.1851L51.3564 44.3845L51.5671 43.8929L51.7356 43.289L51.9604 42.685L52.0446 42.376L52.1429 42.053L52.1851 41.8563L52.3536 41.3507C52.3536 41.3086 52.3677 41.2664 52.3677 41.2243C52.3677 40.8872 52.2413 40.7327 51.9744 40.7327C51.9463 40.7327 51.9042 40.7327 51.862 40.7327C51.862 40.7046 51.848 40.6765 51.848 40.6484C51.848 40.5922 51.9042 40.5501 51.9744 40.5501L52.5362 40.5361L53.0278 40.4658H53.7441C53.7722 40.4518 53.8284 40.4518 53.8986 40.4377V40.4799C53.8986 40.508 53.8424 40.6906 53.7582 40.9434L53.3509 42.2075C53.3368 42.2496 53.3087 42.3198 53.2666 42.4322C53.1402 42.7693 53.0559 42.994 53.0278 43.0923L52.9014 43.5418L52.6064 44.4688L52.5784 44.6373L51.9884 46.2526L51.7216 47.306L51.3143 48.556C51.3002 48.5982 51.3002 48.6403 51.3002 48.6824C51.3002 48.8369 51.3845 48.9072 51.553 48.9072L52.0025 48.9212L52.5643 49.0055L53.0699 48.9914L54.6009 48.9633C55.5279 48.9493 55.7245 48.9212 56.3566 48.7246L56.5251 48.7667C56.1459 49.2583 55.1346 49.8061 54.4745 49.8763L54.1093 49.9184L54.011 49.9325L53.4913 49.9044H51.6233L51.4828 49.9325L51.2019 49.8903L50.6963 49.9184L50.4154 49.8763L49.7131 49.8623C49.6709 49.8623 49.6288 49.8623 49.5586 49.8482Z" fill="#F26522"></path><path d="M56.5539 49.8482V49.792C56.7646 49.5533 56.8629 49.3847 56.9331 49.0757L57.0033 48.7386L57.1859 48.3173C57.2 48.3032 57.2281 48.1628 57.2842 47.938L57.4387 47.4324L57.7337 46.393L57.8742 45.9436L57.9163 45.6908L58.1129 45.1851L58.3517 44.3845L58.5624 43.8929L58.7309 43.289L58.9557 42.685L59.0399 42.376L59.1383 42.053L59.1804 41.8563L59.3489 41.3507C59.3489 41.3086 59.363 41.2664 59.363 41.2243C59.363 40.8872 59.2366 40.7327 58.9697 40.7327C58.9416 40.7327 58.8995 40.7327 58.8573 40.7327C58.8573 40.7046 58.8433 40.6765 58.8433 40.6484C58.8433 40.5922 58.8995 40.5501 58.9697 40.5501L59.5315 40.5361L60.0231 40.4658H60.7394C60.7675 40.4518 60.8237 40.4518 60.8939 40.4377V40.4799C60.8939 40.508 60.8378 40.6906 60.7535 40.9434L60.3462 42.2075C60.3321 42.2496 60.304 42.3198 60.2619 42.4322C60.1355 42.7693 60.0512 42.994 60.0231 43.0923L59.8967 43.5418L59.6017 44.4688L59.5737 44.6373L58.9837 46.2526L58.7169 47.306L58.3096 48.556C58.2955 48.5982 58.2955 48.6403 58.2955 48.6824C58.2955 48.8369 58.3798 48.9072 58.5483 48.9072L58.9978 48.9212L59.5596 49.0055L60.0653 48.9914L61.5962 48.9633C62.5232 48.9493 62.7198 48.9212 63.3519 48.7246L63.5204 48.7667C63.1412 49.2583 62.1299 49.8061 61.4698 49.8763L61.1046 49.9184L61.0063 49.9325L60.4866 49.9044H58.6186L58.4781 49.9325L58.1972 49.8903L57.6916 49.9184L57.4107 49.8763L56.7084 49.8623C56.6662 49.8623 56.6241 49.8623 56.5539 49.8482Z" fill="#F26522"></path></svg> 